<?xml version="1.0" encoding="UTF-8" standalone="no"?>
<svg
   xmlns:dc="http://purl.org/dc/elements/1.1/"
   xmlns:cc="http://creativecommons.org/ns#"
   xmlns:rdf="http://www.w3.org/1999/02/22-rdf-syntax-ns#"
   xmlns:svg="http://www.w3.org/2000/svg"
   xmlns="http://www.w3.org/2000/svg"
   xmlns:sodipodi="http://sodipodi.sourceforge.net/DTD/sodipodi-0.dtd"
   xmlns:inkscape="http://www.inkscape.org/namespaces/inkscape"
   stroke="#e5e6e3"
   fill="#e5e6e3"
   height="100.00014"
   width="100"
   inkscape:version="1.0 (4035a4fb49, 2020-05-01)"
   sodipodi:docname="check-circle-svgrepo-com.svg"
   id="svg9724"
   version="1.1"
   viewBox="0 0 75 75.000109">
  <metadata
     id="metadata17">
    <rdf:RDF>
      <cc:Work
         rdf:about="">
        <dc:format>image/svg+xml</dc:format>
        <dc:type
           rdf:resource="http://purl.org/dc/dcmitype/StillImage" />
        <dc:title />
      </cc:Work>
    </rdf:RDF>
  </metadata>
  <defs
     id="defs15" />
  <sodipodi:namedview
     inkscape:current-layer="svg9724"
     inkscape:window-maximized="1"
     inkscape:window-y="-9"
     inkscape:window-x="1911"
     inkscape:cy="327.94051"
     inkscape:cx="400.66671"
     inkscape:zoom="1.0946622"
     showgrid="false"
     id="namedview13"
     inkscape:window-height="1001"
     inkscape:window-width="1920"
     inkscape:pageshadow="2"
     inkscape:pageopacity="0"
     guidetolerance="10"
     gridtolerance="10"
     objecttolerance="10"
     borderopacity="1"
     bordercolor="#666666"
     pagecolor="#ffffff"
     inkscape:document-rotation="0"
     fit-margin-top="0"
     fit-margin-left="0"
     fit-margin-right="0"
     fit-margin-bottom="0" />
  <g
     stroke-width="0"
     id="SVGRepo_bgCarrier"
     transform="translate(0.50003259,0.54785641)" />
  <g
     stroke-width="13.2"
     stroke="#cccccc"
     stroke-linejoin="round"
     stroke-linecap="round"
     id="SVGRepo_tracerCarrier"
     transform="translate(0.50003259,0.54785641)" />
  <g
     style="fill:#000000;fill-opacity:1;stroke-width:0.998954;stroke-miterlimit:4;stroke-dasharray:none"
     id="SVGRepo_iconCarrier"
     transform="matrix(0.12479017,0,0,0.12477272,0.06233552,0.06830245)">
    <defs
       id="defs9728" />
    <sodipodi:namedview
       showguides="true"
       inkscape:current-layer="g10449"
       inkscape:window-maximized="1"
       inkscape:window-y="1080"
       inkscape:window-x="0"
       inkscape:window-height="1009"
       inkscape:window-width="1920"
       inkscape:cy="626.49618"
       inkscape:cx="175.942"
       inkscape:zoom="0.42059315"
       showgrid="true"
       inkscape:deskcolor="#d1d1d1"
       inkscape:pagecheckerboard="0"
       inkscape:pageopacity="0.0"
       inkscape:showpageshadow="2"
       borderopacity="1.0"
       bordercolor="#666666"
       pagecolor="#E5E6E3"
       id="namedview9726">
      <inkscape:grid
         originy="0"
         originx="0"
         id="grid9972"
         type="xygrid" />
    </sodipodi:namedview>
    <g
       style="fill:#000000;fill-opacity:1;stroke-width:1.04993;stroke-miterlimit:4;stroke-dasharray:none"
       transform="matrix(0.95173205,0,0,0.95115787,13.901174,12.168794)"
       id="g10449">
      <g
         style="fill:#000000;fill-opacity:1;stroke-width:0.792842;stroke-miterlimit:4;stroke-dasharray:none"
         transform="matrix(1.3807551,0,0,1.2700888,273.60014,263.99768)"
         inkscape:transform-center-y="-20.347403"
         inkscape:transform-center-x="-0.59233046"
         id="path10026" />
      <g
         style="fill:#000000;fill-opacity:1;stroke-width:0.723454;stroke-miterlimit:4;stroke-dasharray:none"
         transform="matrix(1.5092301,0,0,1.3955555,36.774048,-9.4503933)"
         id="g11314" />
      <path
         sodipodi:nodetypes="scccccccccsssssscccssscscs"
         d="m 573.78125,71.326172 c -11.14983,0.0041 -21.84136,4.437288 -29.72266,12.324219 L 269.17773,358.69727 201.88007,226.17417 c -16.41326,-16.42281 -43.03211,-16.43069 -59.45508,-0.0176 -16.42281,16.41326 -16.43068,43.03211 -0.0176,59.45508 l 97.034,162.277 c 16.42109,16.42734 43.05156,16.42734 59.47265,0 L 603.53125,143.08789 c 16.41439,-16.4232 16.40651,-43.04355 -0.0176,-59.457031 -7.88689,-7.88216 -18.58202,-12.308309 -29.73242,-12.304687 z M 297.41602,-12.826172 C 216.90703,-11.965911 137.45719,19.625316 77.640625,79.496094 -23.103069,180.33109 -43.683279,336.82447 27.546875,460.31055 98.777031,583.79662 244.53398,644.23617 382.17383,607.32227 519.81368,570.40835 615.82422,445.15088 615.82422,302.57422 c -1.6e-4,-23.21855 -18.82247,-42.04086 -42.04102,-42.04102 -23.21931,-9.2e-4 -42.04281,18.82171 -42.04297,42.04102 0,104.9608 -70.10118,196.38166 -171.34765,223.53515 C 259.14611,553.26287 152.80736,509.18649 100.38086,418.29883 47.954364,327.41117 62.989814,213.1262 137.12305,138.92578 211.25628,64.725365 325.35936,49.693075 416.14258,102.1543 c 20.1039,11.61703 45.81879,4.73687 57.43554,-15.367191 C 485.19415,66.68416 478.31507,40.97088 458.21289,29.353516 408.08311,0.38483622 352.50111,-13.414771 297.41602,-12.826172 Z"
         style="color:#000000;fill:#000000;fill-opacity:1;stroke-width:1.04993;stroke-linecap:round;stroke-linejoin:round;stroke-miterlimit:4;stroke-dasharray:none"
         id="path501" />
    </g>
  </g>
</svg>
