<?xml version="1.0" encoding="UTF-8" standalone="no"?>
<svg
   xmlns:dc="http://purl.org/dc/elements/1.1/"
   xmlns:cc="http://creativecommons.org/ns#"
   xmlns:rdf="http://www.w3.org/1999/02/22-rdf-syntax-ns#"
   xmlns:svg="http://www.w3.org/2000/svg"
   xmlns="http://www.w3.org/2000/svg"
   xmlns:sodipodi="http://sodipodi.sourceforge.net/DTD/sodipodi-0.dtd"
   xmlns:inkscape="http://www.inkscape.org/namespaces/inkscape"
   inkscape:version="1.0 (4035a4fb49, 2020-05-01)"
   sodipodi:docname="close-square-svgrepo-com.svg"
   id="svg4"
   version="1.1"
   fill="none"
   viewBox="0 0 3 3.0014955"
   height="100.04985"
   width="100">
  <metadata
     id="metadata10">
    <rdf:RDF>
      <cc:Work
         rdf:about="">
        <dc:format>image/svg+xml</dc:format>
        <dc:type
           rdf:resource="http://purl.org/dc/dcmitype/StillImage" />
      </cc:Work>
    </rdf:RDF>
  </metadata>
  <defs
     id="defs8" />
  <sodipodi:namedview
     inkscape:current-layer="svg4"
     inkscape:window-maximized="1"
     inkscape:window-y="-9"
     inkscape:window-x="1911"
     inkscape:cy="333.33333"
     inkscape:cx="333.33333"
     inkscape:zoom="1.032052"
     showgrid="false"
     id="namedview6"
     inkscape:window-height="1001"
     inkscape:window-width="1920"
     inkscape:pageshadow="2"
     inkscape:pageopacity="0"
     guidetolerance="10"
     gridtolerance="10"
     objecttolerance="10"
     borderopacity="1"
     bordercolor="#666666"
     pagecolor="#ffffff"
     inkscape:document-rotation="0" />
  <path
     style="fill:#050300;fill-opacity:1;stroke-width:0.150075"
     id="path2"
     fill="#292D32"
     d="M 2.1295611,0 H 0.8719345 C 0.3256623,0 0,0.3256623 0,0.8719345 v 1.2561259 c 0,0.5477729 0.3256623,0.8734352 0.8719345,0.8734352 h 1.2561259 c 0.5462722,0 0.8719344,-0.3256623 0.8719344,-0.8719345 V 0.8719345 C 3.0014956,0.3256623 2.6758333,0 2.1295611,0 Z M 2.004999,1.8459198 c 0.043522,0.043522 0.043522,0.1155576 0,0.1590792 -0.022511,0.022511 -0.051025,0.033017 -0.07954,0.033017 -0.028514,0 -0.057028,-0.010505 -0.07954,-0.033017 L 1.5007478,1.6598271 1.1555758,2.004999 c -0.022511,0.022511 -0.051025,0.033017 -0.07954,0.033017 -0.028514,0 -0.057028,-0.010505 -0.07954,-0.033017 -0.043522,-0.043522 -0.043522,-0.1155575 0,-0.1590792 l 0.345172,-0.345172 -0.345172,-0.345172 c -0.043522,-0.043522 -0.043522,-0.1155576 0,-0.1590793 0.043522,-0.043522 0.1155576,-0.043522 0.1590793,0 l 0.345172,0.345172 0.345172,-0.345172 c 0.043522,-0.043522 0.1155576,-0.043522 0.1590792,0 0.043522,0.043522 0.043522,0.1155576 0,0.1590793 l -0.3451719,0.345172 z" />
</svg>
